<svg width="401" height="395" viewBox="0 0 401 395" fill="none" xmlns="http://www.w3.org/2000/svg">
<g clip-path="url(#clip0_2_12479)">
<path d="M236.977 160.421C236.977 160.421 237.222 160.057 237.629 159.493C238.443 158.322 239.95 156.183 241.619 153.964C241.619 153.964 241.619 153.923 241.66 153.883C244.062 150.776 251.961 140.566 259.942 127.652C260.471 126.764 261.001 125.917 261.53 125.029C267.068 115.747 270.447 98.9592 270.814 82.0099C271.017 73.0106 270.366 64.0113 268.737 56.0613C264.014 33.1797 234.575 6.62573 234.575 6.62573L232.946 8.80493C231.318 10.9841 219.387 24.5032 208.556 45.0442C197.725 65.5852 199.883 104.004 205.462 120.348C211.081 136.732 228.549 157.757 228.549 157.757C228.549 157.757 237.385 162.237 213.972 225.797C165.925 356.549 0 358.647 0 358.647V371.319C0 371.319 20.5625 373.74 53.2995 364.297C97.9669 351.423 111.322 349.123 152.895 316.516C194.468 283.949 212.18 249.243 224.843 218.008C234.697 193.714 236.937 160.421 236.937 160.421" fill="#4570EB"/>
<path d="M384.544 269.821C384.544 269.821 375.831 263.082 362.842 254.769C349.853 246.456 313.573 236.447 275.91 241.25C238.205 246.052 214.019 272.323 214.019 272.323C214.019 272.323 214.181 272.485 214.385 272.727H214.019C214.019 272.727 224.524 284.995 255.836 298.151C287.148 311.307 301.643 307.877 332.711 300.976C363.778 294.075 384.544 270.265 384.544 270.265H384.178C384.382 270.023 384.544 269.862 384.544 269.862" fill="#4570EB"/>
<path d="M187.054 212.356C187.054 212.356 187.461 211.145 188.154 209.006C189.457 204.931 191.655 197.465 193.895 188.143C196.46 177.448 194.954 155.213 185.996 131.927C183.023 124.179 179.196 116.31 174.391 108.723C159.448 84.9939 134.488 73.2908 124.308 69.2956C121.458 68.1656 119.748 67.641 119.748 67.641C119.748 67.641 111.482 81.2812 110.22 113.001C108.917 144.76 117.875 155.858 136.605 179.789C155.335 203.72 187.054 212.396 187.054 212.396" fill="#4570EB"/>
<path d="M39.0194 193.616C48.8731 224.045 61.2106 231.873 87.3107 248.944C112.189 265.248 143.379 264.884 146.229 264.804H146.433C146.433 264.804 146.189 254.311 144.438 239.824C142.687 225.336 126.97 193.495 98.223 170.452C69.517 147.409 32.1788 147.853 32.1788 147.853H31.9345L32.1381 148.055C31.8124 149.952 29.7765 165.206 38.9787 193.657" fill="#4570EB"/>
<path d="M31.9703 315.875C46.7509 315.875 58.7219 304.818 58.7219 291.177C58.7219 277.537 46.7509 266.48 31.9703 266.48C17.1898 266.48 5.21875 277.537 5.21875 291.177C5.21875 304.818 17.1898 315.875 31.9703 315.875Z" fill="#4570EB"/>
<path d="M410.199 139.963L408.855 140.407C405.557 139.277 396.436 136.251 384.425 133.062C369.237 129.067 331.41 130.399 297.411 146.218C267.117 160.302 252.906 187.341 250.178 192.99L249.689 193.152C249.689 193.152 249.852 193.233 250.015 193.354C249.812 193.838 249.689 194.08 249.689 194.08C249.689 194.08 263.9 202.514 298.144 205.662C332.387 208.769 344.928 201.223 371.924 185.404C398.92 169.584 410.24 140.891 410.24 140.891C410.24 140.891 410.117 140.851 409.914 140.77C410.117 140.246 410.24 139.963 410.24 139.963" fill="#4570EB"/>
</g>
<defs>
<clipPath id="clip0_2_12479">
<rect width="400.809" height="395" fill="white"/>
</clipPath>
</defs>
</svg>
